HIERARCHY
ROOT hip
{
  OFFSET 0 0 0
  CHANNELS 6 Xposition Yposition Zposition Zrotation Yrotation Xrotation
  JOINT abdomen
  {
    OFFSET 0 20.6881 -0.73152
    CHANNELS 3 Zrotation Xrotation Yrotation
    JOINT chest
    {
      OFFSET 0 11.7043 -0.48768
      CHANNELS 3 Zrotation Xrotation Yrotation
      JOINT neck
      {
        OFFSET 0 22.1894 -2.19456
        CHANNELS 3 Zrotation Xrotation Yrotation
        JOINT head
        {
          OFFSET -0.24384 7.07133 1.2192
          CHANNELS 3 Zrotation Xrotation Yrotation
          JOINT leftEye
          {
            OFFSET 4.14528 8.04674 8.04672
            CHANNELS 3 Zrotation Xrotation Yrotation
            End Site
            {
              OFFSET 1 0 0
            }
          }
          JOINT rightEye
          {
            OFFSET -3.6576 8.04674 8.04672
            CHANNELS 3 Zrotation Xrotation Yrotation
            End Site
            {
              OFFSET 1 0 0
            }
          }
        }
      }
      JOINT rCollar
      {
        OFFSET -2.68224 19.2634 -4.8768
        CHANNELS 3 Zrotation Xrotation Yrotation
        JOINT rShldr
        {
          OFFSET -8.77824 -1.95073 1.46304
          CHANNELS 3 Zrotation Xrotation Yrotation
          JOINT rForeArm
          {
            OFFSET -28.1742 -1.7115 0.48768
            CHANNELS 3 Zrotation Xrotation Yrotation
            JOINT rHand
            {
              OFFSET -22.5879 0.773209 7.07136
              CHANNELS 3 Zrotation Xrotation Yrotation
              JOINT rThumb1
              {
                OFFSET -1.2192 -0.487915 3.41376
                CHANNELS 3 Zrotation Xrotation Yrotation
                JOINT rThumb2
                {
                  OFFSET -3.37035 -0.52449 3.41376
                  CHANNELS 3 Zrotation Xrotation Yrotation
                  End Site
                  {
                    OFFSET -1.78271 -1.18214 1.43049
                  }
                }
              }
              JOINT rIndex1
              {
                OFFSET -7.75947 0.938293 5.60832
                CHANNELS 3 Zrotation Xrotation Yrotation
                JOINT rIndex2
                {
                  OFFSET -2.54057 -0.884171 1.56538
                  CHANNELS 3 Zrotation Xrotation Yrotation
                  End Site
                  {
                    OFFSET -1.62519 -0.234802 1.16502
                  }
                }
              }
              JOINT rMid1
              {
                OFFSET -8.24714 1.18213 3.41376
                CHANNELS 3 Zrotation Xrotation Yrotation
                JOINT rMid2
                {
                  OFFSET -3.10165 -0.590103 1.0647
                  CHANNELS 3 Zrotation Xrotation Yrotation
                  End Site
                  {
                    OFFSET -2.48547 -0.328903 0.83742
                  }
                }
              }
              JOINT rRing1
              {
                OFFSET -8.82822 0.546677 1.51678
                CHANNELS 3 Zrotation Xrotation Yrotation
                JOINT rRing2
                {
                  OFFSET -2.60934 -0.819778 -0.0198488
                  CHANNELS 3 Zrotation Xrotation Yrotation
                  End Site
                  {
                    OFFSET -2.33842 -0.294052 0.168128
                  }
                }
              }
              JOINT rPinky1
              {
                OFFSET -8.27202 -0.0477905 -0.4584
                CHANNELS 3 Zrotation Xrotation Yrotation
                JOINT rPinky2
                {
                  OFFSET -1.82734 -0.647385 -0.700984
                  CHANNELS 3 Zrotation Xrotation Yrotation
                  End Site
                  {
                    OFFSET -1.69225 -0.51767 -0.607171
                  }
                }
              }
            }
          }
        }
      }
      JOINT lCollar
      {
        OFFSET 2.68224 19.2634 -4.8768
        CHANNELS 3 Zrotation Xrotation Yrotation
        JOINT lShldr
        {
          OFFSET 8.77824 -1.95073 1.46304
          CHANNELS 3 Zrotation Xrotation Yrotation
          JOINT lForeArm
          {
            OFFSET 28.1742 -1.7115 0.48768
            CHANNELS 3 Zrotation Xrotation Yrotation
            JOINT lHand
            {
              OFFSET 22.5879 0.773209 7.07136
              CHANNELS 3 Zrotation Xrotation Yrotation
              JOINT lThumb1
              {
                OFFSET 1.2192 -0.487915 3.41376
                CHANNELS 3 Zrotation Xrotation Yrotation
                JOINT lThumb2
                {
                  OFFSET 3.37035 -0.52449 3.41376
                  CHANNELS 3 Zrotation Xrotation Yrotation
                  End Site
                  {
                    OFFSET 1.78271 -1.18214 1.43049
                  }
                }
              }
              JOINT lIndex1
              {
                OFFSET 7.75947 0.938293 5.60832
                CHANNELS 3 Zrotation Xrotation Yrotation
                JOINT lIndex2
                {
                  OFFSET 2.54057 -0.884171 1.56538
                  CHANNELS 3 Zrotation Xrotation Yrotation
                  End Site
                  {
                    OFFSET 1.62519 -0.234802 1.16502
                  }
                }
              }
              JOINT lMid1
              {
                OFFSET 8.24714 1.18213 3.41376
                CHANNELS 3 Zrotation Xrotation Yrotation
                JOINT lMid2
                {
                  OFFSET 3.10165 -0.590103 1.0647
                  CHANNELS 3 Zrotation Xrotation Yrotation
                  End Site
                  {
                    OFFSET 2.48547 -0.328903 0.83742
                  }
                }
              }
              JOINT lRing1
              {
                OFFSET 8.82822 0.546677 1.51678
                CHANNELS 3 Zrotation Xrotation Yrotation
                JOINT lRing2
                {
                  OFFSET 2.60934 -0.819778 -0.0198488
                  CHANNELS 3 Zrotation Xrotation Yrotation
                  End Site
                  {
                    OFFSET 2.33842 -0.294052 0.168128
                  }
                }
              }
              JOINT lPinky1
              {
                OFFSET 8.27202 -0.0477905 -0.4584
                CHANNELS 3 Zrotation Xrotation Yrotation
                JOINT lPinky2
                {
                  OFFSET 1.82734 -0.647385 -0.700984
                  CHANNELS 3 Zrotation Xrotation Yrotation
                  End Site
                  {
                    OFFSET 1.69225 -0.51767 -0.607171
                  }
                }
              }
            }
          }
        }
      }
    }
  }
  JOINT rButtock
  {
    OFFSET -8.77824 4.35084 1.2192
    CHANNELS 3 Zrotation Xrotation Yrotation
    JOINT rThigh
    {
      OFFSET 0 -1.70687 -2.19456
      CHANNELS 3 Zrotation Xrotation Yrotation
      JOINT rShin
      {
        OFFSET 0 -36.8199 0.73152
        CHANNELS 3 Zrotation Xrotation Yrotation
        JOINT rFoot
        {
          OFFSET 0.73152 -45.1104 -5.12064
          CHANNELS 3 Zrotation Xrotation Yrotation
          End Site
          {
            OFFSET -1.1221 -3.69964 12.103
          }
        }
      }
    }
  }
  JOINT lButtock
  {
    OFFSET 8.77824 4.35084 1.2192
    CHANNELS 3 Zrotation Xrotation Yrotation
    JOINT lThigh
    {
      OFFSET 0 -1.70687 -2.19456
      CHANNELS 3 Zrotation Xrotation Yrotation
      JOINT lShin
      {
        OFFSET 0 -36.8199 0.73152
        CHANNELS 3 Zrotation Xrotation Yrotation
        JOINT lFoot
        {
          OFFSET -0.73152 -45.1104 -5.12064
          CHANNELS 3 Zrotation Xrotation Yrotation
          End Site
          {
            OFFSET 1.1221 -3.69964 12.103
          }
        }
      }
    }
  }
}
MOTION
Frames:	5
Frame Time:	0.00833333
0.0 0.0 0.0 0.0 0.0 0.0 0.0 0.0 0.0 0.0 0.0 0.0 0.0 0.0 0.0 0.0 0.0 0.0 0.0 0.0 0.0 0.0 0.0 0.0 0.0 0.0 0.0 0.0 0.0 0.0 0.0 0.0 0.0 0.0 0.0 0.0 0.0 0.0 0.0 0.0 0.0 0.0 0.0 0.0 0.0 0.0 0.0 0.0 0.0 0.0 0.0 0.0 0.0 0.0 0.0 0.0 0.0 0.0 0.0 0.0 0.0 0.0 0.0 0.0 0.0 0.0 0.0 0.0 0.0 0.0 0.0 0.0 0.0 0.0 0.0 0.0 0.0 0.0 0.0 0.0 0.0 0.0 0.0 0.0 0.0 0.0 0.0 0.0 0.0 0.0 0.0 0.0 0.0 0.0 0.0 0.0 0.0 0.0 0.0 0.0 0.0 0.0 0.0 0.0 0.0 0.0 0.0 0.0 0.0 0.0 0.0 0.0 0.0 0.0 0.0 0.0 0.0 0.0 0.0 0.0 0.0 0.0 0.0 0.0 0.0 0.0 0.0 0.0 0.0 0.0 0.0 0.0
0.1424 63.2559 0.1106 -1.304401 68.468545 -1.945872 -1.789312 0.849104 88.738402 -7.3054 5.740567 41.034351 -5.409237 -12.711797 -61.93215 42.415576 29.496782 112.698267 -115.594082 13.182888 20.793247 -16.11212 4.305697 -29.748163 -81.32694 -30.290839 165.539552 10.282211 -12.600155 7.417066 -6.662756 -27.21396 157.459786 151.350551 -14.933789 61.683583 -3.645303 -3.729773 19.621507 135.809578 -3.666816 -56.05881 -128.627009 69.258477 27.322512 5.19817 -46.267512 125.309503 148.330191 -37.785814 -170.867889 -162.905099 40.206266 45.794277 -96.104548 -6.341825 -120.758231 -41.662605 8.717727 32.394125 -9.408348 11.274417 -60.951052 179.892391 62.166055 -123.063517 85.618243 -26.703043 -153.759166 137.764401 52.616956 -141.814263 4.970157 58.328093 -164.421268 -168.712236 -0.417955 -67.002875 152.456763 21.915655 -45.300787 122.125671 -78.815333 98.475541 113.983312 43.591476 -61.790148 -86.671087 74.97953 168.129402 117.506081 38.115642 69.284806 -7.083834 -23.814553 -128.572814 -89.257935 8.836923 145.558901 -138.133009 -23.026576 -126.184901 55.252149 37.394456 73.54439 -132.025394 82.494902 57.98647 55.175213 3.301252 92.277973 -0.117268 54.572946 -179.835133 5.060573 -1.624473 85.345119 68.974353 -15.206177 -94.603221 24.237249 57.041292 150.415839 -4.391099 59.369818 163.636766 -7.112614 -0.563919 -90.449442 -68.105114 69.03048 72.354409
-0.3698 61.1339 -2.4119 -10.524672 -19.283254 6.483792 10.579262 10.713714 -87.891742 5.21646 -4.998426 95.931962 -8.247247 11.945553 -12.903553 25.070084 -21.126531 37.569121 -1.302513 0.125762 -11.029518 -12.626232 -0.941511 8.494836 -11.654483 28.912498 18.502929 -113.694204 -7.04153 155.671237 -168.880444 4.01606 -86.786486 -8.892315 -1.145547 -2.05531 -153.559822 15.425316 95.448432 -13.206155 -42.145898 12.418525 -23.799327 35.756541 -10.792469 -3.978348 10.156089 62.689324 -170.107223 14.069755 161.685896 -1.913966 -32.726195 0.898937 36.163898 -85.656891 21.149974 168.870932 12.798735 -171.91132 -3.616283 -73.804983 -9.789232 -57.78477 6.672813 17.104772 4.492235 0.770269 6.193561 -75.136771 -19.803969 -34.173659 6.12149 8.513578 -86.103597 4.226345 28.054903 7.342744 3.43257 3.725705 -0.929785 -138.109171 -70.651299 -74.974787 -11.101606 -40.761094 -4.930031 4.488146 21.390458 8.641261 -14.154967 -41.515865 -6.570955 89.399338 -83.805006 143.226208 115.04221 1.320721 179.495509 -75.228385 46.858736 27.221739 90.982241 31.99472 148.225497 -40.409056 -62.80027 36.69868 -19.578032 -1.625448 -20.662107 2.665963 -9.232995 -13.823115 -31.047962 51.182768 -58.125834 169.949332 -63.708418 -91.643601 -145.111326 81.888624 -25.22497 -149.490955 14.993286 -89.435218 -83.274944 0.554967 -92.767166 48.464219 13.177692 177.126895
-0.47609999999999997 61.5567 -3.1037 -9.986133 -18.588896 3.379541 4.802305 18.647785 -27.347539 5.383991 -11.270566 39.788707 -0.570522 5.468345 7.507145 7.61463 -20.006305 5.970506 -19.065907 -0.149616 0.890907 -11.538491 -1.544449 15.197616 -149.822258 -15.250082 167.828914 -35.193843 1.373717 1.3439 -171.034642 -5.832211 -81.970749 -9.530512 -0.832943 -9.148836 -175.406125 2.712815 101.598801 174.066367 34.689579 119.454325 -170.557456 -44.065999 116.339476 -0.19144 3.63009 3.609885 -44.842756 45.448848 -1.850718 26.019542 8.321905 51.470685 16.549904 -21.526778 5.794472 177.805351 -12.042737 166.510853 -44.904838 68.246772 86.315923 160.388645 69.543882 -96.477852 -4.31099 -49.380968 10.086842 108.261266 -15.032373 173.488976 2.983201 -1.501915 127.483368 -153.698325 -20.700519 -122.81937 126.796329 27.415581 -59.524024 125.629822 -4.857516 -45.485581 169.52505 -31.140327 -107.462788 -174.89941 21.436661 -171.742251 108.918085 32.606725 -76.838459 156.286102 -43.45185 -130.871763 136.938381 1.784605 175.923007 174.056054 35.943088 139.157337 45.06749 -13.786182 -116.64855 -3.16639 68.003504 -149.700428 0.037793 15.422207 0.109599 -18.132875 -13.305326 121.052951 29.782587 -38.357984 -86.926663 -63.14876 48.587558 -21.916968 -22.040336 21.493554 -45.417948 107.487748 -9.140623 65.297625 -2.533311 73.388436 70.483156 119.689782 -82.842912 8.578095
-0.356 61.366299999999995 -2.217 -8.308094 -13.88912 2.098377 -0.292507 14.679891 -11.953603 4.506611 -8.897428 24.250031 -5.516014 16.04299 -80.667747 33.814334 6.305507 85.499361 18.114076 -2.115298 -13.212599 -24.897747 -3.390304 15.270949 11.021488 -44.446401 -13.530275 -153.807092 27.383222 -154.454723 -85.828611 -85.360492 11.697252 -8.614961 -10.460774 -9.691637 -7.666192 9.08805 -11.78658 40.458068 31.306207 11.093231 -9.383616 33.640578 12.250698 -27.706402 67.707829 17.616106 16.85593 -59.312447 -1.629547 -162.014911 3.511804 140.376413 -133.351314 1.186593 169.622788 -139.356025 -43.661232 177.266532 -162.343746 -32.234444 -137.584492 -80.243257 -23.866129 -26.208002 -11.674843 -39.170232 -3.152235 112.653153 25.873685 -179.025412 166.937162 -34.807421 80.685789 -8.091109 9.116759 16.060576 -152.184954 -21.19245 -71.446208 33.308284 -27.368527 17.342529 -123.501354 -69.825482 -63.457142 44.404214 37.486736 -5.396077 0.976113 -9.641579 -25.176747 -170.780014 -27.900682 -168.099039 -49.83081 -33.134636 -35.431591 -140.007956 -42.240847 -160.517536 162.454528 -25.295897 136.254413 145.266876 -22.742509 88.316195 -144.983067 58.511069 -1.32616 114.481542 36.500882 11.496859 -34.732701 42.759115 -24.343234 -82.301592 -54.084535 8.808954 -71.67188 54.149549 -52.254906 155.302474 8.015221 87.430825 81.074805 47.214066 90.631833 48.79556 25.008719 -173.060632
